G04*
G04 #@! TF.GenerationSoftware,Altium Limited,Altium Designer,25.8.1 (18)*
G04*
G04 Layer_Physical_Order=1*
G04 Layer_Color=255*
%FSLAX44Y44*%
%MOMM*%
G71*
G04*
G04 #@! TF.SameCoordinates,C02ECCA3-0EB7-4A6C-A862-4848849F1EA5*
G04*
G04*
G04 #@! TF.FilePolarity,Positive*
G04*
G01*
G75*
%ADD10C,0.2000*%
%ADD13R,0.7000X0.7000*%
%ADD14R,0.9000X1.2000*%
%ADD19C,0.5000*%
%ADD20O,1.6000X2.0000*%
%ADD21R,1.6000X2.0000*%
%ADD22C,0.6000*%
D10*
X67000Y42000D02*
Y51997D01*
X70332Y48664D01*
X73664Y51997D01*
Y42000D01*
X78663Y48664D02*
X81995D01*
X83661Y46998D01*
Y42000D01*
X78663D01*
X76997Y43666D01*
X78663Y45332D01*
X83661D01*
X86994Y48664D02*
X93658Y42000D01*
X90326Y45332D01*
X93658Y48664D01*
X86994Y42000D01*
X96990Y51997D02*
X103655D01*
Y50331D01*
X96990Y43666D01*
Y42000D01*
X106987Y51997D02*
X113652D01*
Y50331D01*
X106987Y43666D01*
Y42000D01*
X123648D02*
X116984D01*
X123648Y48664D01*
Y50331D01*
X121982Y51997D01*
X118650D01*
X116984Y50331D01*
X126981Y51997D02*
X133645D01*
Y50331D01*
X126981Y43666D01*
Y42000D01*
D13*
X64000Y20000D02*
D03*
X50000D02*
D03*
D14*
X145500D02*
D03*
X124500D02*
D03*
D19*
X50000D02*
Y50000D01*
X145000Y20500D02*
X145500Y20000D01*
X145000Y20500D02*
Y35000D01*
X160400Y50400D01*
Y120000D01*
X64000Y20000D02*
X124500D01*
D20*
X135000Y120000D02*
D03*
D21*
X160400D02*
D03*
D22*
X50000Y50000D02*
D03*
M02*
