G04*
G04 #@! TF.GenerationSoftware,Altium Limited,Altium Designer,25.8.1 (18)*
G04*
G04 Layer_Color=65535*
%FSLAX44Y44*%
%MOMM*%
G71*
G04*
G04 #@! TF.SameCoordinates,C02ECCA3-0EB7-4A6C-A862-4848849F1EA5*
G04*
G04*
G04 #@! TF.FilePolarity,Positive*
G04*
G01*
G75*
%ADD10C,0.2000*%
%ADD11C,0.2540*%
%ADD12R,0.5000X1.4000*%
D10*
X39000Y13000D02*
X71000D01*
Y27000D01*
X39000D02*
X71000D01*
X39000Y13000D02*
Y27000D01*
X117000Y11000D02*
X153000D01*
Y29000D01*
X117000D02*
X153000D01*
X117000Y11000D02*
Y29000D01*
X136270Y133970D02*
Y149210D01*
Y133970D02*
X160400D01*
Y149210D01*
X173100Y90790D02*
Y149210D01*
X122300Y90790D02*
X173100D01*
X122300D02*
Y149210D01*
X173100D01*
D11*
X162383Y30157D02*
X177617D01*
Y22539D01*
X175078Y20000D01*
X170000D01*
X167461Y22539D01*
Y30157D01*
Y25078D02*
X162383Y20000D01*
Y14922D02*
Y9843D01*
Y12382D01*
X177617D01*
X175078Y14922D01*
X150000Y82618D02*
X144922D01*
X147461D01*
Y69922D01*
X144922Y67382D01*
X142382D01*
X139843Y69922D01*
X155078Y67382D02*
X160157D01*
X157618D01*
Y82618D01*
X155078Y80078D01*
X12383Y9843D02*
X27617D01*
Y17461D01*
X25078Y20000D01*
X14922D01*
X12383Y17461D01*
Y9843D01*
X27617Y25078D02*
Y30157D01*
Y27618D01*
X12383D01*
X14922Y25078D01*
D12*
X41500Y20000D02*
D03*
M02*
